<svg width="45" height="44" viewBox="0 0 45 44" fill="none" xmlns="http://www.w3.org/2000/svg">
<path fill-rule="evenodd" clip-rule="evenodd" d="M44.5656 1.8859C44.6656 1.63603 44.6901 1.36231 44.636 1.09866C44.5819 0.835007 44.4517 0.593026 44.2613 0.402715C44.071 0.212403 43.8291 0.0821309 43.5654 0.0280473C43.3018 -0.0260364 43.028 -0.00155258 42.7782 0.0984633L2.7753 16.1002H2.77255L1.52959 16.5951C1.29418 16.689 1.08929 16.8462 0.937583 17.0492C0.785871 17.2523 0.693233 17.4933 0.669901 17.7457C0.646569 17.9981 0.693452 18.252 0.805371 18.4794C0.91729 18.7068 1.08989 18.8988 1.3041 19.0343L2.43156 19.7493L2.43431 19.7548L16.1701 28.494L24.9093 42.2298L24.9148 42.2353L25.6298 43.3627C25.7657 43.5761 25.9578 43.7479 26.1851 43.8591C26.4123 43.9703 26.6658 44.0166 26.9177 43.993C27.1696 43.9694 27.4101 43.8768 27.6127 43.7253C27.8154 43.5738 27.9723 43.3694 28.0662 43.1345L44.5656 1.8859ZM39.525 7.08322L40.8202 3.84383L37.5808 5.13904L16.9731 25.7468L17.9025 26.3381C18.0731 26.4464 18.2177 26.591 18.326 26.7615L18.9172 27.691L39.525 7.08322Z" fill="white"/>
</svg>
