<svg width="1585" height="846" viewBox="0 0 1585 846" fill="none" xmlns="http://www.w3.org/2000/svg">
<g clip-path="url(#clip0_1032_2408)">
<path d="M298.765 314.257V275.243H150.883V422.382H193.826V314.257H298.765Z" fill="#121928"/>
<path d="M420.98 275.243L124 570.756H180.261L477.018 275.478L420.98 275.243Z" fill="#3C64B1"/>
<path d="M302.774 531.125V570.139H450.644V423H407.713V531.125H302.774Z" fill="#121928"/>
</g>
<path d="M595.599 298.152H580.781V336.579H595.969C603.131 336.579 609.057 335.162 613.75 332.329C618.442 329.373 620.788 324.57 620.788 317.919C620.788 310.899 618.565 305.849 614.12 302.77C609.675 299.691 603.501 298.152 595.599 298.152ZM630.048 403.826L603.378 355.792C602.019 355.915 600.599 356.038 599.118 356.162C597.636 356.162 596.154 356.162 594.672 356.162H580.781V403.826H556.889V278.199H596.339C610.045 278.199 621.776 281.34 631.53 287.621C641.285 293.902 646.162 303.632 646.162 316.811C646.162 324.57 644.125 331.283 640.05 336.948C636.099 342.49 630.975 346.801 624.677 349.88L655.608 403.826H630.048Z" fill="#121928"/>
<path d="M798.215 403.826H710.053V278.199H785.25L788.954 297.043H733.945V330.851H767.654L771.544 349.88H733.945V385.167H794.325L798.215 403.826Z" fill="#121928"/>
<path d="M854.535 376.114C858.362 378.085 863.24 380.055 869.166 382.026C875.093 383.996 880.711 384.982 886.021 384.982C893.553 384.982 899.171 383.812 902.876 381.472C906.703 379.132 908.617 375.745 908.617 371.311C908.617 367.123 906.086 363.428 901.023 360.226C896.084 356.901 890.59 353.698 884.539 350.619C875.649 346.062 867.129 340.705 858.98 334.546C850.83 328.388 846.817 319.828 846.941 308.867C847.064 299.383 850.83 291.439 858.239 285.035C865.771 278.507 876.452 275.243 890.281 275.243C896.578 275.243 902.876 276.228 909.173 278.199C915.47 280.17 921.027 282.325 925.842 284.665L917.878 303.879C914.05 302.031 909.914 300.307 905.469 298.706C901.023 296.982 896.084 296.119 890.651 296.119C885.342 296.119 880.835 297.166 877.131 299.26C873.55 301.354 871.759 304.556 871.759 308.867C871.759 313.547 874.106 317.427 878.798 320.506C883.49 323.585 889.046 326.849 895.467 330.297C904.481 334.854 913.062 340.212 921.212 346.37C929.485 352.528 933.559 360.965 933.436 371.68C933.312 381.656 929.238 389.908 921.212 396.436C913.186 402.964 901.579 406.227 886.391 406.227C881.082 406.227 874.229 405.057 865.833 402.717C857.56 400.377 852.003 397.976 849.163 395.512L854.535 376.114Z" fill="#121928"/>
<path d="M1015.44 278.199V330.851L1062.67 275.428L1080.45 289.099L1043.04 332.329L1095.64 403.826H1065.82L1027.29 350.619L1015.44 364.475V403.826H991.363V278.199H1015.44Z" fill="#121928"/>
<path d="M1172.09 278.199V403.826H1148.2V278.199H1172.09Z" fill="#121928"/>
<path d="M1323.39 403.826H1240.23V278.199H1264.12V385.167H1319.69L1323.39 403.826Z" fill="#121928"/>
<path d="M1461 403.826H1377.84V278.199H1401.73V385.167H1457.3L1461 403.826Z" fill="#121928"/>
<path d="M575.983 483.078L558.355 529.784H594.156L575.983 483.078ZM580.355 472.279L615.883 562.721L607.548 564.071L596.616 536.534H556.032L545.784 564.071H537.722L571.473 472.279H580.355Z" fill="#121928"/>
<path d="M696.092 533.024L666.85 490.232V564.071H658.378V472.279H663.16L697.185 520.605L730.663 472.279H736.266V564.071H727.657V489.558L698.825 532.484L696.092 533.024Z" fill="#121928"/>
<path d="M792.328 564.071V472.279H841.52L842.203 478.353H800.8V513.99H828.129L828.812 520.065H800.8V557.322H844.526L845.346 564.071H792.328Z" fill="#121928"/>
<path d="M915.638 479.433H899.787V518.58H914.135C921.059 518.58 927.117 517.185 932.309 514.395C937.502 511.606 940.143 506.386 940.234 498.737C940.234 490.907 937.912 485.733 933.266 483.213C928.62 480.693 922.744 479.433 915.638 479.433ZM946.657 564.071L924.657 524.79C922.926 524.97 921.15 525.15 919.328 525.33C917.506 525.42 915.684 525.465 913.862 525.465H899.787V564.071H891.315V472.279H915.365C925.021 472.279 932.992 474.259 939.278 478.218C945.655 482.088 948.843 488.838 948.843 498.467C948.752 504.856 947.158 509.986 944.061 513.855C940.963 517.725 937.001 520.605 932.172 522.495L956.222 564.071H946.657Z" fill="#121928"/>
<path d="M1005.12 564.071V472.279H1013.59V564.071H1005.12Z" fill="#121928"/>
<path d="M1125.97 481.593C1123.15 480.423 1120.37 479.478 1117.64 478.758C1114.9 478.038 1111.08 477.679 1106.16 477.679C1096.41 477.769 1088.67 481.683 1082.93 489.423C1077.19 497.072 1074.32 506.791 1074.32 518.58C1074.32 529.559 1076.78 538.963 1081.7 546.793C1086.62 554.622 1094.36 558.537 1104.93 558.537C1109.85 558.537 1113.86 558.132 1116.95 557.322C1120.14 556.512 1122.97 555.567 1125.43 554.487L1128.71 560.967C1126.16 562.316 1122.56 563.486 1117.91 564.476C1113.36 565.466 1109.12 565.961 1105.2 565.961C1090.99 565.961 1080.79 561.237 1074.59 551.787C1068.4 542.248 1065.3 531.224 1065.3 518.715C1065.3 505.306 1068.72 493.922 1075.55 484.563C1082.47 475.114 1092.63 470.389 1106.02 470.389C1108.85 470.389 1112.67 470.794 1117.5 471.604C1122.42 472.414 1126.16 473.674 1128.71 475.384L1125.97 481.593Z" fill="#121928"/>
<path d="M1203.67 483.078L1186.04 529.784H1221.84L1203.67 483.078ZM1208.04 472.279L1243.57 562.721L1235.24 564.071L1224.3 536.534H1183.72L1173.47 564.071H1165.41L1199.16 472.279H1208.04Z" fill="#121928"/>
<path d="M1286.07 564.071V472.279H1291.67L1340.45 538.693L1345.1 546.658V472.279H1353.71V564.071H1348.1L1296.45 492.392L1294.54 488.478V564.071H1286.07Z" fill="#121928"/>
<path d="M1406.06 553.677C1408.43 554.847 1411.66 556.017 1415.76 557.187C1419.86 558.357 1424.19 558.942 1428.74 558.942C1436.58 558.942 1442.54 557.367 1446.64 554.217C1450.83 551.067 1452.93 547.153 1452.93 542.473C1452.93 531.944 1444.5 524.475 1427.65 520.065C1410.79 515.565 1402.41 506.386 1402.5 492.527C1402.6 486.228 1405.24 480.918 1410.43 476.599C1415.71 472.279 1422.73 470.119 1431.47 470.119C1436.03 470.119 1440.31 470.659 1444.32 471.739C1448.33 472.819 1451.7 474.034 1454.43 475.384L1451.42 481.728C1449.06 480.648 1446.37 479.613 1443.36 478.623C1440.36 477.634 1436.48 477.139 1431.75 477.139C1425.19 477.139 1420 478.533 1416.17 481.323C1412.34 484.113 1410.43 487.848 1410.43 492.527C1410.43 503.236 1418.95 510.886 1435.98 515.475C1453.02 520.065 1461.35 529.064 1460.99 542.473C1460.9 549.223 1458.03 554.802 1452.38 559.212C1446.82 563.621 1438.99 565.826 1428.88 565.826C1424.96 565.826 1420.22 565.241 1414.67 564.071C1409.11 562.811 1405.56 561.507 1404.01 560.157L1406.06 553.677Z" fill="#121928"/>
<defs>
<clipPath id="clip0_1032_2408">
<rect width="353.018" height="295.513" fill="white" transform="translate(124 275.243)"/>
</clipPath>
</defs>
</svg>
